<?xml version="1.0" encoding="utf-8"?>
<!-- Generator: Adobe Illustrator 19.1.0, SVG Export Plug-In . SVG Version: 6.00 Build 0)  -->
<!DOCTYPE svg PUBLIC "-//W3C//DTD SVG 1.1//EN" "http://www.w3.org/Graphics/SVG/1.1/DTD/svg11.dtd">
<svg version="1.1" id="Layer_1" xmlns="http://www.w3.org/2000/svg" xmlns:xlink="http://www.w3.org/1999/xlink" x="0px" y="0px"
	 viewBox="0 0 153.9 65.2" style="enable-background:new 0 0 153.9 65.2;" xml:space="preserve">
<style type="text/css">
	.st0{fill:#FFC729;}
	.st1{fill:#FFD15F;}
	.st2{fill:#F4B822;}
	.st3{fill:#DD9527;}
	.st4{fill:#BF762E;}
</style>
<path class="st0" d="M153.9,41.5H0V27.2c0-3.1,2.5-5.7,5.7-5.7h142.5c3.1,0,5.7,2.5,5.7,5.7V41.5z"/>
<circle class="st0" cx="77" cy="24" r="23.5"/>
<rect y="40.4" class="st1" width="153.9" height="12.3"/>
<rect y="51.7" class="st2" width="153.9" height="13.6"/>
<g>
	<circle class="st3" cx="77" cy="21.8" r="7.9"/>
	<path class="st4" d="M76.2,16.5c4.3,0,7.8,3.5,7.8,7.8c0,0.4,0,0.8-0.1,1.1c0.6-1.1,1-2.4,1-3.8c0-4.3-3.5-7.8-7.8-7.8
		c-3.9,0-7.2,2.9-7.7,6.7C70.7,18.2,73.3,16.5,76.2,16.5z"/>
</g>
</svg>
